# Wavefront OBJ file
# Creator: Ultimate Unwrap3D Pro v3.15
# Time: Mon Jul 06 12:23:05 2009
# num_vertices: 20
# num_vertex_normals: 20
# num_uvs: 72
# num_faces: 18
# num_groups: 1

mtllib path1.mtl

v -68.062302 16.501400 -193.447998
v 68.062302 16.501400 -193.447998
v 68.062302 0.000000 -193.447998
v -68.062302 0.000000 -193.447998
v -68.062302 16.501400 6.276410
v 68.062302 16.501400 0.000137
v 68.062302 0.000000 0.000137
v -68.062302 0.000000 0.000137
v -68.062302 16.501400 -95.196602
v -68.062302 0.000000 -95.196602
v 68.062302 0.000000 -95.196602
v 68.062302 16.501400 -95.196602
v -68.062302 16.501400 193.447998
v 68.062302 16.501400 193.447998
v 68.062302 0.000000 193.447998
v -68.062302 0.000000 193.447998
v -68.062302 16.501400 90.970200
v -68.062302 0.000000 90.970200
v 68.062302 0.000000 90.970200
v 68.062302 16.501400 90.970200
# num_vertices: 20

vn -0.577350 0.577350 -0.577350
vn 0.577350 0.577350 -0.577350
vn 0.577350 -0.577350 -0.577350
vn -0.577350 -0.577350 -0.577350
vn -0.707107 0.707107 0.000000
vn 0.707107 0.707107 0.000000
vn 0.707107 -0.707107 0.000000
vn -0.707107 -0.707107 0.000000
vn -0.707107 0.707107 0.000000
vn -0.707107 -0.707107 0.000000
vn 0.707107 -0.707107 0.000000
vn 0.707107 0.707107 0.000000
vn -0.577350 0.577350 0.577350
vn 0.577350 0.577350 0.577350
vn 0.577350 -0.577350 0.577350
vn -0.577350 -0.577350 0.577350
vn -0.707107 0.707107 0.000000
vn -0.707107 -0.707107 0.000000
vn 0.707107 -0.707107 0.000000
vn 0.707107 0.707107 0.000000
# num_vertex_normals: 20

vt 0.585091 0.397646
vt 0.640454 0.397646
vt 0.640454 0.052048
vt 0.585091 0.052048
vt 0.732408 0.019944
vt 0.732408 0.415006
vt 0.033174 0.415007
vt 0.033174 0.019944
vt 0.734409 0.038178
vt 0.734409 0.420959
vt 0.035175 0.420959
vt 0.035175 0.038179
vt 0.634923 0.056683
vt 0.634923 0.240439
vt 0.581656 0.240439
vt 0.581656 0.056683
vt 0.634923 0.240439
vt 0.634923 0.418482
vt 0.581656 0.418482
vt 0.581656 0.240439
vt 0.033174 0.019944
vt 0.033174 0.415006
vt 0.732408 0.415007
vt 0.732408 0.019944
vt 0.035175 0.038178
vt 0.035175 0.420959
vt 0.734409 0.420959
vt 0.734409 0.038179
vt 0.581656 0.056683
vt 0.581656 0.240439
vt 0.634923 0.240439
vt 0.634923 0.056683
vt 0.581656 0.240439
vt 0.581656 0.418482
vt 0.634923 0.418482
vt 0.634923 0.240439
vt 0.585091 0.052048
vt 0.640454 0.052048
vt 0.640454 0.397646
vt 0.585091 0.397646
vt 0.029173 0.019942
vt 0.029173 0.432001
vt 0.728406 0.432001
vt 0.728406 0.019942
vt 0.035175 0.047853
vt 0.035175 0.413638
vt 0.734409 0.413638
vt 0.734409 0.047853
vt 0.585647 0.075104
vt 0.585647 0.443095
vt 0.641577 0.443095
vt 0.641577 0.075104
vt 0.581656 0.248345
vt 0.581656 0.418482
vt 0.634923 0.418482
vt 0.634923 0.248345
vt 0.728406 0.019942
vt 0.728406 0.432001
vt 0.029173 0.432001
vt 0.029173 0.019942
vt 0.734409 0.047853
vt 0.734409 0.413638
vt 0.035175 0.413638
vt 0.035175 0.047853
vt 0.634923 0.056683
vt 0.634923 0.248345
vt 0.581656 0.248345
vt 0.581656 0.056683
vt 0.634923 0.248345
vt 0.634923 0.418482
vt 0.581656 0.418482
vt 0.581656 0.248345
# num_uvs: 72

g path1
s 1

usemtl vi_int_flooor
f 4/1/4 1/2/1 2/3/2 3/4/3 
f 1/5/1 9/6/9 12/7/12 2/8/2 
f 9/9/9 5/10/5 6/11/6 12/12/12 
f 2/13/2 12/14/12 11/15/11 3/16/3 
f 12/17/12 6/18/6 7/19/7 11/20/11 
f 3/21/3 11/22/11 10/23/10 4/24/4 
f 11/25/11 7/26/7 8/27/8 10/28/10 
f 4/29/4 10/30/10 9/31/9 1/32/1 
f 10/33/10 8/34/8 5/35/5 9/36/9 
f 15/37/15 14/38/14 13/39/13 16/40/16 
f 14/41/14 20/42/20 17/43/17 13/44/13 
f 20/45/20 6/46/6 5/47/5 17/48/17 
f 15/49/15 19/50/19 20/51/20 14/52/14 
f 19/53/19 7/54/7 6/55/6 20/56/20 
f 16/57/16 18/58/18 19/59/19 15/60/15 
f 18/61/18 8/62/8 7/63/7 19/64/19 
f 13/65/13 17/66/17 18/67/18 16/68/16 
f 17/69/17 5/70/5 8/71/8 18/72/18 
# num_faces: 18

