# Wavefront OBJ file
# Creator: Ultimate Unwrap3D Pro v3.15
# Time: Tue Jul 07 17:34:33 2009
# num_vertices: 84
# num_vertex_normals: 84
# num_uvs: 310
# num_faces: 73
# num_groups: 1

mtllib half_barrell.mtl

v 13.597600 -0.000001 6.548305
v 9.409800 -0.000001 11.799604
v 3.358301 -0.000001 14.713804
v -3.358299 -0.000001 14.713804
v -9.409801 -0.000001 11.799604
v -13.597599 -0.000001 6.548305
v -15.092201 -0.000001 -0.000005
v 15.092200 -0.000001 0.000015
v 13.692901 2.676193 6.594104
v 9.475800 2.676193 11.882206
v 3.381800 2.676193 14.816906
v -3.381800 2.676193 14.816906
v -9.475800 2.676193 11.882206
v -13.692898 2.676193 6.594104
v -15.197899 2.676193 -0.000005
v 15.197901 2.676193 0.000015
v 12.202701 17.855423 5.876504
v 8.444500 17.855423 10.589106
v 13.543900 17.855423 0.000005
v 3.013800 17.855423 13.204405
v -3.013800 17.855423 13.204405
v -8.444500 17.855423 10.589106
v -12.202599 17.855423 5.876504
v -13.543900 17.855423 -0.170945
v 13.044001 11.156624 6.281704
v 14.477700 11.156624 0.000005
v -14.477699 11.156624 -0.000005
v -13.043999 11.156624 6.281704
v -9.026699 11.156624 11.319105
v -3.221600 11.156624 14.114706
v 3.221600 11.156624 14.114706
v 9.026701 11.156624 11.319105
v 9.256001 17.855423 4.457465
v 10.273401 17.855423 0.000005
v -10.273399 17.855423 0.000015
v -9.256001 17.855423 4.457465
v -6.405399 17.855423 8.032104
v -2.285999 17.855423 10.015905
v 2.286001 17.855423 10.015905
v 6.405401 17.855423 8.032104
v 10.273401 16.927423 -0.000005
v 9.256001 16.927423 4.457465
v 6.405401 16.927423 8.032104
v -10.273399 16.927423 -0.271235
v -9.256001 16.927423 4.457465
v -6.405399 16.927423 8.032104
v -2.285999 16.927423 10.015905
v 2.286001 16.927423 10.015905
v 13.597600 -0.000001 -6.548265
v 9.409800 -0.000001 -11.799576
v 3.358301 -0.000001 -14.713795
v -3.358299 -0.000001 -14.713795
v -9.409801 -0.000001 -11.799576
v -13.597599 -0.000001 -6.548265
v 13.692901 2.676193 -6.594125
v 9.475800 2.676193 -11.882206
v 3.381800 2.676193 -14.816906
v -3.381800 2.676193 -14.816906
v -9.475800 2.676193 -11.882206
v -13.692898 2.676193 -6.594125
v 12.202701 17.855423 -5.876488
v 8.444500 17.855423 -10.589066
v 3.013800 17.855423 -13.204346
v -3.013800 17.855423 -13.204346
v -8.444500 17.855423 -10.589066
v -12.202599 17.855423 -5.876488
v 13.044001 11.156624 -6.281665
v -13.043999 11.156624 -6.281665
v -9.026699 11.156624 -11.319125
v -3.221600 11.156624 -14.114725
v 3.221600 11.156624 -14.114725
v 9.026701 11.156624 -11.319125
v 9.256001 17.855423 -4.457458
v -9.256001 17.855423 -4.457458
v -6.405399 17.855423 -8.032065
v -2.285999 17.855423 -10.015845
v 2.286001 17.855423 -10.015845
v 6.405401 17.855423 -8.032065
v 9.256001 16.927423 -4.457458
v 6.405401 16.927423 -8.032065
v -9.256001 16.927423 -4.457458
v -6.405399 16.927423 -8.032065
v -2.285999 16.927423 -10.015845
v 2.286001 16.927423 -10.015845
# num_vertices: 84

vn 0.788529 -0.483757 0.379737
vn 0.545676 -0.483758 0.684263
vn 0.194747 -0.483763 0.853257
vn -0.194747 -0.483767 0.853254
vn -0.545673 -0.483767 0.684259
vn -0.788524 -0.483769 0.379734
vn -0.875200 -0.483762 -0.000001
vn 0.875198 -0.483764 -0.000000
vn 0.900739 0.022626 0.433771
vn 0.623328 0.022626 0.781633
vn 0.222462 0.022622 0.974679
vn -0.222462 0.022620 0.974679
vn -0.623329 0.022617 0.781633
vn -0.900739 0.022615 0.433771
vn -0.999744 0.022621 -0.000001
vn 0.999744 0.022619 -0.000000
vn 0.584065 0.761416 0.281272
vn 0.404185 0.761413 0.506838
vn 0.648266 0.761414 -0.000000
vn 0.144254 0.761411 0.632015
vn -0.144254 0.761411 0.632015
vn -0.404186 0.761412 0.506839
vn -0.584064 0.761417 0.281272
vn -0.649319 0.760516 -0.000056
vn 0.895363 0.111388 0.431182
vn 0.993777 0.111385 -0.000000
vn -0.993935 0.109968 -0.000043
vn -0.895363 0.111386 0.431182
vn -0.619608 0.111381 0.776968
vn -0.221136 0.111383 0.968861
vn 0.221136 0.111382 0.968862
vn 0.619608 0.111386 0.776968
vn -0.628945 0.716025 -0.302880
vn -0.698073 0.716026 0.000000
vn 0.697381 0.716684 0.004863
vn 0.618156 0.727432 -0.297868
vn 0.435245 0.716026 -0.545773
vn 0.155336 0.716026 -0.680571
vn -0.155336 0.716026 -0.680571
vn -0.435245 0.716026 -0.545772
vn -0.698073 0.716026 0.000000
vn -0.801688 0.456343 -0.386067
vn -0.554788 0.456344 -0.695672
vn 0.697381 0.716684 0.004863
vn 0.790446 0.479708 -0.380888
vn 0.554788 0.456344 -0.695673
vn 0.198000 0.456343 -0.867494
vn -0.198000 0.456343 -0.867494
vn 0.788522 -0.483773 -0.379733
vn 0.545673 -0.483771 -0.684257
vn 0.194748 -0.483769 -0.853253
vn -0.194748 -0.483768 -0.853254
vn -0.545674 -0.483766 -0.684258
vn -0.788527 -0.483762 -0.379736
vn 0.900738 0.022614 -0.433773
vn 0.623328 0.022616 -0.781633
vn 0.222463 0.022616 -0.974679
vn -0.222463 0.022618 -0.974679
vn -0.623328 0.022618 -0.781633
vn -0.900738 0.022621 -0.433773
vn 0.584067 0.761415 -0.281272
vn 0.404186 0.761414 -0.506836
vn 0.144253 0.761415 -0.632011
vn -0.144253 0.761415 -0.632012
vn -0.404184 0.761416 -0.506834
vn -0.585039 0.760517 -0.281679
vn 0.895362 0.111387 -0.431184
vn -0.895523 0.109968 -0.431214
vn -0.619608 0.111389 -0.776968
vn -0.221137 0.111387 -0.968861
vn 0.221137 0.111387 -0.968861
vn 0.619608 0.111387 -0.776968
vn -0.628944 0.716025 0.302881
vn 0.638013 0.703550 0.312981
vn 0.435243 0.716026 0.545774
vn 0.155335 0.716026 0.680572
vn -0.155335 0.716026 0.680572
vn -0.435243 0.716026 0.545774
vn -0.801687 0.456343 0.386069
vn -0.554785 0.456344 0.695675
vn 0.810215 0.430791 0.397455
vn 0.554785 0.456344 0.695675
vn 0.197998 0.456343 0.867495
vn -0.197998 0.456343 0.867495
# num_vertex_normals: 84

vt 0.583496 0.534599
vt 0.585250 0.631479
vt 0.509629 0.613216
vt 0.505372 0.515321
vt 0.505372 0.515321
vt 0.509629 0.613216
vt 0.398436 0.603070
vt 0.398003 0.506190
vt 0.398003 0.506190
vt 0.398436 0.603070
vt 0.273896 0.605099
vt 0.270270 0.508219
vt 0.270270 0.508219
vt 0.273896 0.605099
vt 0.159659 0.613216
vt 0.157830 0.513292
vt 0.157830 0.513292
vt 0.159659 0.613216
vt 0.085054 0.622347
vt 0.086808 0.530540
vt 0.086808 0.530540
vt 0.085054 0.622347
vt 0.044151 0.637567
vt 0.041024 0.550833
vt 0.626235 0.554891
vt 0.622094 0.654815
vt 0.585250 0.631479
vt 0.583496 0.534599
vt 0.509629 0.613216
vt 0.585250 0.631479
vt 0.577360 0.756583
vt 0.502375 0.745422
vt 0.577360 0.756583
vt 0.557810 0.880727
vt 0.491655 0.871595
vt 0.502375 0.745422
vt 0.585250 0.631479
vt 0.622094 0.654815
vt 0.611877 0.772816
vt 0.577360 0.756583
vt 0.611877 0.772816
vt 0.593668 0.894931
vt 0.557810 0.880727
vt 0.577360 0.756583
vt 0.398436 0.603070
vt 0.509629 0.613216
vt 0.502375 0.745422
vt 0.395485 0.740349
vt 0.502375 0.745422
vt 0.491655 0.871595
vt 0.391659 0.866522
vt 0.395485 0.740349
vt 0.273896 0.605099
vt 0.398436 0.603070
vt 0.395485 0.740349
vt 0.277861 0.739334
vt 0.395485 0.740349
vt 0.391659 0.866522
vt 0.280673 0.866522
vt 0.277861 0.739334
vt 0.159659 0.613216
vt 0.273896 0.605099
vt 0.277861 0.739334
vt 0.169958 0.748466
vt 0.277861 0.739334
vt 0.280673 0.866522
vt 0.179663 0.871595
vt 0.169958 0.748466
vt 0.085054 0.622347
vt 0.159659 0.613216
vt 0.169958 0.748466
vt 0.097002 0.761656
vt 0.169958 0.748466
vt 0.179663 0.871595
vt 0.105391 0.886814
vt 0.097002 0.761656
vt 0.044151 0.637567
vt 0.085054 0.622347
vt 0.097002 0.761656
vt 0.054369 0.779919
vt 0.097002 0.761656
vt 0.105391 0.886814
vt 0.074607 0.904063
vt 0.054369 0.779919
vt 0.454700 0.866685
vt 0.494076 0.826434
vt 0.534436 0.842701
vt 0.533885 0.883293
vt 0.126576 0.880331
vt 0.126369 0.837392
vt 0.169918 0.829327
vt 0.208817 0.863167
vt 0.208817 0.863167
vt 0.169918 0.829327
vt 0.220628 0.825278
vt 0.247282 0.864010
vt 0.247282 0.864010
vt 0.220628 0.825278
vt 0.293200 0.827715
vt 0.302330 0.862387
vt 0.302330 0.862387
vt 0.293200 0.827715
vt 0.373261 0.828861
vt 0.363058 0.863256
vt 0.363058 0.863256
vt 0.373261 0.828861
vt 0.444953 0.828486
vt 0.417438 0.866444
vt 0.417438 0.866444
vt 0.444953 0.828486
vt 0.494076 0.826434
vt 0.454700 0.866685
vt 0.512446 0.649351
vt 0.532747 0.738297
vt 0.122749 0.738297
vt 0.143049 0.649351
vt 0.199932 0.578021
vt 0.282130 0.538436
vt 0.373363 0.538436
vt 0.455562 0.578021
vt 0.462764 0.770636
vt 0.495865 0.770636
vt 0.495865 0.754592
vt 0.462764 0.754592
vt 0.420734 0.770636
vt 0.462764 0.770636
vt 0.462764 0.754592
vt 0.420734 0.754592
vt 0.155866 0.770636
vt 0.188967 0.770636
vt 0.188967 0.754592
vt 0.155866 0.754592
vt 0.188967 0.770636
vt 0.230997 0.770636
vt 0.230997 0.754592
vt 0.188967 0.754592
vt 0.230997 0.770636
vt 0.289904 0.770636
vt 0.289904 0.754592
vt 0.230997 0.754592
vt 0.289904 0.770636
vt 0.361827 0.770636
vt 0.361827 0.754592
vt 0.289904 0.754592
vt 0.361827 0.770636
vt 0.420734 0.770636
vt 0.420734 0.754592
vt 0.361827 0.754592
vt 0.505372 0.515321
vt 0.509629 0.613216
vt 0.585250 0.631479
vt 0.583496 0.534599
vt 0.398003 0.506190
vt 0.398436 0.603070
vt 0.509629 0.613216
vt 0.505372 0.515321
vt 0.270270 0.508219
vt 0.273896 0.605099
vt 0.398436 0.603070
vt 0.398003 0.506190
vt 0.157830 0.513292
vt 0.159659 0.613216
vt 0.273896 0.605099
vt 0.270270 0.508219
vt 0.086808 0.530540
vt 0.085054 0.622347
vt 0.159659 0.613216
vt 0.157830 0.513292
vt 0.041024 0.550833
vt 0.044151 0.637567
vt 0.085054 0.622347
vt 0.086808 0.530540
vt 0.583496 0.534599
vt 0.585250 0.631479
vt 0.622094 0.654815
vt 0.626235 0.554891
vt 0.502375 0.745422
vt 0.577360 0.756583
vt 0.585250 0.631479
vt 0.509629 0.613216
vt 0.502375 0.745422
vt 0.491655 0.871595
vt 0.557810 0.880727
vt 0.577360 0.756583
vt 0.577360 0.756583
vt 0.611877 0.772816
vt 0.622094 0.654815
vt 0.585250 0.631479
vt 0.577360 0.756583
vt 0.557810 0.880727
vt 0.593668 0.894931
vt 0.611877 0.772816
vt 0.395485 0.740349
vt 0.502375 0.745422
vt 0.509629 0.613216
vt 0.398436 0.603070
vt 0.395485 0.740349
vt 0.391659 0.866522
vt 0.491655 0.871595
vt 0.502375 0.745422
vt 0.277861 0.739334
vt 0.395485 0.740349
vt 0.398436 0.603070
vt 0.273896 0.605099
vt 0.277861 0.739334
vt 0.280673 0.866522
vt 0.391659 0.866522
vt 0.395485 0.740349
vt 0.169958 0.748466
vt 0.277861 0.739334
vt 0.273896 0.605099
vt 0.159659 0.613216
vt 0.169958 0.748466
vt 0.179663 0.871595
vt 0.280673 0.866522
vt 0.277861 0.739334
vt 0.097002 0.761656
vt 0.169958 0.748466
vt 0.159659 0.613216
vt 0.085054 0.622347
vt 0.097002 0.761656
vt 0.105391 0.886814
vt 0.179663 0.871595
vt 0.169958 0.748466
vt 0.054369 0.779919
vt 0.097002 0.761656
vt 0.085054 0.622347
vt 0.044151 0.637567
vt 0.054369 0.779919
vt 0.074607 0.904063
vt 0.105391 0.886814
vt 0.097002 0.761656
vt 0.533885 0.883293
vt 0.534436 0.842701
vt 0.494076 0.826434
vt 0.454700 0.866685
vt 0.208817 0.863167
vt 0.169918 0.829327
vt 0.126369 0.837392
vt 0.126576 0.880331
vt 0.247282 0.864010
vt 0.220628 0.825278
vt 0.169918 0.829327
vt 0.208817 0.863167
vt 0.302330 0.862387
vt 0.293200 0.827715
vt 0.220628 0.825278
vt 0.247282 0.864010
vt 0.363058 0.863256
vt 0.373261 0.828861
vt 0.293200 0.827715
vt 0.302330 0.862387
vt 0.417438 0.866444
vt 0.444953 0.828486
vt 0.373261 0.828861
vt 0.363058 0.863256
vt 0.454700 0.866685
vt 0.494076 0.826434
vt 0.444953 0.828486
vt 0.417438 0.866444
vt 0.455562 0.578021
vt 0.373363 0.538436
vt 0.282130 0.538436
vt 0.199932 0.578021
vt 0.143049 0.649351
vt 0.122749 0.738297
vt 0.532747 0.738297
vt 0.512446 0.649351
vt 0.462764 0.754592
vt 0.495865 0.754592
vt 0.495865 0.770636
vt 0.462764 0.770636
vt 0.420734 0.754592
vt 0.462764 0.754592
vt 0.462764 0.770636
vt 0.420734 0.770636
vt 0.155866 0.754592
vt 0.188967 0.754592
vt 0.188967 0.770636
vt 0.155866 0.770636
vt 0.188967 0.754592
vt 0.230997 0.754592
vt 0.230997 0.770636
vt 0.188967 0.770636
vt 0.230997 0.754592
vt 0.289904 0.754592
vt 0.289904 0.770636
vt 0.230997 0.770636
vt 0.289904 0.754592
vt 0.361827 0.754592
vt 0.361827 0.770636
vt 0.289904 0.770636
vt 0.361827 0.754592
vt 0.420734 0.754592
vt 0.420734 0.770636
vt 0.361827 0.770636
vt 0.583496 0.534599
vt 0.505372 0.515321
vt 0.398003 0.506190
vt 0.270270 0.508219
vt 0.157830 0.513292
vt 0.086808 0.530540
vt 0.041024 0.550833
vt 0.086808 0.530540
vt 0.157830 0.513292
vt 0.270270 0.508219
vt 0.398003 0.506190
vt 0.505372 0.515321
vt 0.583496 0.534599
vt 0.626235 0.554891
# num_uvs: 310

g Shape0
s 1

usemtl half_barrell
f 1/1/1 9/2/9 10/3/10 2/4/2 
f 2/5/2 10/6/10 11/7/11 3/8/3 
f 3/9/3 11/10/11 12/11/12 4/12/4 
f 4/13/4 12/14/12 13/15/13 5/16/5 
f 5/17/5 13/18/13 14/19/14 6/20/6 
f 6/21/6 14/22/14 15/23/15 7/24/7 
f 8/25/8 16/26/16 9/27/9 1/28/1 
f 10/29/10 9/30/9 25/31/25 32/32/32 
f 25/33/25 17/34/17 18/35/18 32/36/32 
f 9/37/9 16/38/16 26/39/26 25/40/25 
f 26/41/26 19/42/19 17/43/17 25/44/25 
f 11/45/11 10/46/10 32/47/32 31/48/31 
f 32/49/32 18/50/18 20/51/20 31/52/31 
f 12/53/12 11/54/11 31/55/31 30/56/30 
f 31/57/31 20/58/20 21/59/21 30/60/30 
f 13/61/13 12/62/12 30/63/30 29/64/29 
f 30/65/30 21/66/21 22/67/22 29/68/29 
f 14/69/14 13/70/13 29/71/29 28/72/28 
f 29/73/29 22/74/22 23/75/23 28/76/28 
f 15/77/15 14/78/14 28/79/28 27/80/27 
f 28/81/28 23/82/23 24/83/24 27/84/27 
f 33/85/33 17/86/17 19/87/19 34/88/34 
f 35/89/35 24/90/24 23/91/23 36/92/36 
f 36/93/36 23/94/23 22/95/22 37/96/37 
f 37/97/37 22/98/22 21/99/21 38/100/38 
f 38/101/38 21/102/21 20/103/20 39/104/39 
f 39/105/39 20/106/20 18/107/18 40/108/40 
f 40/109/40 18/110/18 17/111/17 33/112/33 
f 42/113/42 41/114/41 44/115/44 45/116/45 46/117/46 47/118/47 48/119/48 43/120/43 
f 33/121/33 34/122/34 41/123/41 42/124/42 
f 40/125/40 33/126/33 42/127/42 43/128/43 
f 35/129/35 36/130/36 45/131/45 44/132/44 
f 36/133/36 37/134/37 46/135/46 45/136/45 
f 37/137/37 38/138/38 47/139/47 46/140/46 
f 38/141/38 39/142/39 48/143/48 47/144/47 
f 39/145/39 40/146/40 43/147/43 48/148/48 
f 50/149/50 56/150/56 55/151/55 49/152/49 
f 51/153/51 57/154/57 56/155/56 50/156/50 
f 52/157/52 58/158/58 57/159/57 51/160/51 
f 53/161/53 59/162/59 58/163/58 52/164/52 
f 54/165/54 60/166/60 59/167/59 53/168/53 
f 7/169/7 15/170/15 60/171/60 54/172/54 
f 49/173/49 55/174/55 16/175/16 8/176/8 
f 72/177/72 67/178/67 55/179/55 56/180/56 
f 72/181/72 62/182/62 61/183/61 67/184/67 
f 67/185/67 26/186/26 16/187/16 55/188/55 
f 67/189/67 61/190/61 19/191/19 26/192/26 
f 71/193/71 72/194/72 56/195/56 57/196/57 
f 71/197/71 63/198/63 62/199/62 72/200/72 
f 70/201/70 71/202/71 57/203/57 58/204/58 
f 70/205/70 64/206/64 63/207/63 71/208/71 
f 69/209/69 70/210/70 58/211/58 59/212/59 
f 69/213/69 65/214/65 64/215/64 70/216/70 
f 68/217/68 69/218/69 59/219/59 60/220/60 
f 68/221/68 66/222/66 65/223/65 69/224/69 
f 27/225/27 68/226/68 60/227/60 15/228/15 
f 27/229/27 24/230/24 66/231/66 68/232/68 
f 34/233/34 19/234/19 61/235/61 73/236/73 
f 74/237/74 66/238/66 24/239/24 35/240/35 
f 75/241/75 65/242/65 66/243/66 74/244/74 
f 76/245/76 64/246/64 65/247/65 75/248/75 
f 77/249/77 63/250/63 64/251/64 76/252/76 
f 78/253/78 62/254/62 63/255/63 77/256/77 
f 73/257/73 61/258/61 62/259/62 78/260/78 
f 80/261/80 84/262/84 83/263/83 82/264/82 81/265/81 44/266/44 41/267/41 79/268/79 
f 79/269/79 41/270/41 34/271/34 73/272/73 
f 80/273/80 79/274/79 73/275/73 78/276/78 
f 44/277/44 81/278/81 74/279/74 35/280/35 
f 81/281/81 82/282/82 75/283/75 74/284/74 
f 82/285/82 83/286/83 76/287/76 75/288/75 
f 83/289/83 84/290/84 77/291/77 76/292/76 
f 84/293/84 80/294/80 78/295/78 77/296/77 
f 1/297/1 2/298/2 3/299/3 4/300/4 5/301/5 6/302/6 7/303/7 54/304/54 53/305/53 52/306/52 51/307/51 50/308/50 49/309/49 8/310/8 
# num_faces: 73

