# Wavefront OBJ file
# Creator: Ultimate Unwrap3D Pro v3.15
# Time: Wed Jul 08 13:30:21 2009
# num_vertices: 41
# num_vertex_normals: 41
# num_uvs: 154
# num_faces: 38
# num_groups: 1

mtllib blacksmith_fire.mtl

v 15.403992 19.583031 -21.305252
v 15.403992 23.841129 -21.305252
v -33.609009 19.583031 -21.305252
v -33.609009 19.583031 21.305252
v -33.609009 23.841129 21.305252
v -33.609009 23.841129 -21.305252
v 15.403992 0.000000 -21.305252
v -33.609009 0.000000 -21.305252
v -33.609009 0.000000 21.305252
v 15.403992 0.000000 21.305252
v 15.403992 19.583031 21.305252
v 15.403992 23.841129 21.305252
v 11.110016 23.841129 -17.011253
v -29.315002 23.841129 -17.011253
v -29.315002 23.841129 17.012245
v 11.110016 23.841129 17.012245
v 11.110016 22.044830 -17.011253
v -29.315002 22.044830 -17.011253
v -29.315002 22.044830 17.012245
v 11.110016 22.044830 17.012245
v 15.403992 23.841129 -17.005249
v 15.403992 22.044830 17.070251
v 15.403992 22.044830 -17.005249
v 15.403992 23.841129 17.070251
v 28.636017 23.841129 -17.410248
v 33.609009 23.841129 -17.562248
v 33.481995 23.841129 -21.305252
v 28.632996 22.044830 17.043251
v 28.636017 22.044830 -17.410248
v 28.632996 23.841129 17.043251
v 33.518005 23.841129 17.043251
v 28.597015 19.583031 -21.305252
v 28.597015 0.000000 -21.305252
v 28.597015 0.000000 21.305252
v 28.597015 19.583031 21.305252
v 28.597015 23.841129 21.305252
v 33.481995 23.841129 21.305252
v 33.481995 19.583031 -21.305252
v 33.481995 0.000000 -21.305252
v 33.481995 0.000000 21.305252
v 33.481995 19.583031 21.305252
# num_vertices: 41

vn 0.000000 0.000000 -1.000000
vn 0.000000 0.832050 -0.554700
vn -0.707107 0.000000 -0.707107
vn -0.707107 0.000000 0.707107
vn -0.408248 0.816497 0.408248
vn -0.408248 0.816497 -0.408248
vn 0.000000 -0.707107 -0.707107
vn -0.577350 -0.577350 -0.577350
vn -0.577350 -0.577350 0.577350
vn 0.000000 -0.707107 0.707107
vn 0.000000 0.000000 1.000000
vn 0.000000 0.832050 0.554700
vn -0.000494 0.707107 0.707106
vn 0.408248 0.816497 0.408248
vn 0.408248 0.816497 -0.408248
vn 0.004776 0.707115 -0.707083
vn -0.000494 0.707107 0.707106
vn 0.577350 0.577350 0.577350
vn 0.577350 0.577350 -0.577350
vn 0.004776 0.707115 -0.707083
vn 0.010323 0.707152 0.706986
vn 0.004054 0.707117 -0.707084
vn 0.010323 0.707152 0.706986
vn 0.004054 0.707117 -0.707084
vn -0.397798 0.820704 0.410124
vn 0.446956 0.894427 -0.015167
vn 0.403478 0.403710 -0.821111
vn -0.578119 0.576941 -0.576990
vn -0.565500 0.583347 0.583023
vn -0.302068 0.904359 -0.301479
vn 0.446956 0.894427 -0.015167
vn 0.000000 0.000000 -1.000000
vn 0.000000 -0.707107 -0.707107
vn 0.000000 -0.707107 0.707107
vn 0.000000 0.000000 1.000000
vn 0.000000 0.707107 0.707107
vn 0.583654 0.583990 0.564184
vn 0.441014 0.000000 -0.897500
vn 0.570604 -0.570932 -0.590295
vn 0.583654 -0.583990 0.564184
vn 0.453146 0.000000 0.891436
# num_vertex_normals: 41

vt 0.762772 0.848773
vt 0.225172 0.848773
vt 0.225172 0.883748
vt 0.762772 0.883748
vt 0.762772 0.687919
vt 0.225172 0.687919
vt 0.225172 0.848773
vt 0.762772 0.848773
vt 0.638151 0.676904
vt 0.638151 0.872469
vt 0.134074 0.872469
vt 0.134074 0.676904
vt 0.580762 0.912660
vt 0.580762 0.703071
vt 0.310460 0.703071
vt 0.310460 0.912660
vt 0.638151 0.872469
vt 0.638151 0.914992
vt 0.134074 0.914992
vt 0.134074 0.872469
vt 0.638151 0.872469
vt 0.638151 0.676904
vt 0.134074 0.676904
vt 0.134074 0.872469
vt 0.638151 0.914992
vt 0.638151 0.872469
vt 0.134074 0.872469
vt 0.134074 0.914992
vt 0.593856 0.821152
vt 0.635711 0.864502
vt 0.157962 0.864502
vt 0.199817 0.821152
vt 0.658358 0.822465
vt 0.700213 0.865815
vt 0.284871 0.865815
vt 0.326717 0.822465
vt 0.205634 0.872875
vt 0.163779 0.829535
vt 0.641528 0.829535
vt 0.599672 0.872875
vt 0.915102 0.360431
vt 0.915102 0.614802
vt 0.818681 0.614802
vt 0.818681 0.360431
vt 0.635711 0.821092
vt 0.635711 0.864502
vt 0.593856 0.821152
vt 0.818681 0.360431
vt 0.818517 0.333411
vt 0.915086 0.333411
vt 0.915102 0.360431
vt 0.599672 0.872875
vt 0.641528 0.829535
vt 0.641528 0.872290
vt 0.635711 0.864502
vt 0.635711 0.821092
vt 0.764688 0.825180
vt 0.813162 0.826715
vt 0.811924 0.864502
vt 0.915086 0.333411
vt 0.818517 0.333411
vt 0.818591 0.250167
vt 0.916218 0.250150
vt 0.312681 0.890446
vt 0.312681 0.841129
vt 0.649995 0.840210
vt 0.648513 0.890415
vt 0.593990 0.914992
vt 0.178236 0.914992
vt 0.178236 0.897054
vt 0.593990 0.897054
vt 0.638151 0.914992
vt 0.593990 0.914992
vt 0.593990 0.897054
vt 0.638151 0.897054
vt 0.708596 0.883748
vt 0.279335 0.883748
vt 0.279335 0.868994
vt 0.708596 0.868994
vt 0.178236 0.914992
vt 0.593990 0.914992
vt 0.593990 0.897054
vt 0.178236 0.897054
vt 0.593990 0.914992
vt 0.638151 0.914992
vt 0.638151 0.897054
vt 0.593990 0.897054
vt 0.774236 0.914992
vt 0.638151 0.914992
vt 0.638151 0.897054
vt 0.774236 0.897054
vt 0.638151 0.914992
vt 0.774205 0.914992
vt 0.774205 0.897054
vt 0.638151 0.897054
vt 0.278944 0.883748
vt 0.713630 0.883748
vt 0.713630 0.868994
vt 0.278944 0.868994
vt 0.638151 0.872469
vt 0.638151 0.914992
vt 0.824075 0.914992
vt 0.773835 0.872469
vt 0.638151 0.676904
vt 0.638151 0.872469
vt 0.773835 0.872469
vt 0.773835 0.676904
vt 0.580762 0.703071
vt 0.580762 0.912660
vt 0.653520 0.912660
vt 0.653520 0.703071
vt 0.638151 0.872469
vt 0.638151 0.676904
vt 0.773835 0.676904
vt 0.773835 0.872469
vt 0.638151 0.914992
vt 0.638151 0.872469
vt 0.773835 0.872469
vt 0.773835 0.914992
vt 0.641528 0.872290
vt 0.641528 0.829535
vt 0.770125 0.829535
vt 0.770475 0.872562
vt 0.770475 0.872562
vt 0.770125 0.829535
vt 0.817741 0.829535
vt 0.818092 0.872562
vt 0.773835 0.872469
vt 0.824075 0.914992
vt 0.824075 0.872469
vt 0.773835 0.676904
vt 0.773835 0.872469
vt 0.824075 0.872469
vt 0.824075 0.676904
vt 0.653520 0.703071
vt 0.653520 0.912660
vt 0.680460 0.912660
vt 0.680460 0.703071
vt 0.773835 0.872469
vt 0.773835 0.676904
vt 0.824075 0.676904
vt 0.824075 0.872469
vt 0.773835 0.914992
vt 0.773835 0.872469
vt 0.824075 0.872469
vt 0.824075 0.914992
vt 0.762772 0.883748
vt 0.715548 0.883748
vt 0.278944 0.883748
vt 0.225172 0.883748
vt 0.225172 0.848773
vt 0.225172 0.687919
vt 0.762772 0.687919
vt 0.762772 0.848773
# num_uvs: 154

g blacksmith_fire
s 1

usemtl blacksmith_fire
f 3/1/3 4/2/4 5/3/5 6/4/6 
f 8/5/8 9/6/9 4/7/4 3/8/3 
f 10/9/10 11/10/11 4/11/4 9/12/9 
f 7/13/7 10/14/10 9/15/9 8/16/8 
f 11/17/11 12/18/12 5/19/5 4/20/4 
f 1/21/1 7/22/7 8/23/8 3/24/3 
f 2/25/2 1/26/1 3/27/3 6/28/6 
f 13/29/13 2/30/2 6/31/6 14/32/14 
f 14/33/14 6/34/6 5/35/5 15/36/15 
f 15/37/15 5/38/5 12/39/12 16/40/16 
f 17/41/17 18/42/18 19/43/19 20/44/20 
f 21/45/21 2/46/2 13/47/13 
f 20/48/20 22/49/22 23/50/23 17/51/17 
f 16/52/16 12/53/12 24/54/24 
f 2/55/2 21/56/21 25/57/25 26/58/26 27/59/27 
f 23/60/23 22/61/22 28/62/28 29/63/29 
f 30/64/30 31/65/31 26/66/26 25/67/25 
f 13/68/13 14/69/14 18/70/18 17/71/17 
f 21/72/21 13/73/13 17/74/17 23/75/23 
f 14/76/14 15/77/15 19/78/19 18/79/18 
f 15/80/15 16/81/16 20/82/20 19/83/19 
f 16/84/16 24/85/24 22/86/22 20/87/20 
f 25/88/25 21/89/21 23/90/23 29/91/29 
f 24/92/24 30/93/30 28/94/28 22/95/22 
f 30/96/30 25/97/25 29/98/29 28/99/28 
f 1/100/1 2/101/2 27/102/27 32/103/32 
f 7/104/7 1/105/1 32/106/32 33/107/33 
f 10/108/10 7/109/7 33/110/33 34/111/34 
f 11/112/11 10/113/10 34/114/34 35/115/35 
f 12/116/12 11/117/11 35/118/35 36/119/36 
f 24/120/24 12/121/12 36/122/36 30/123/30 
f 30/124/30 36/125/36 37/126/37 31/127/31 
f 32/128/32 27/129/27 38/130/38 
f 33/131/33 32/132/32 38/133/38 39/134/39 
f 34/135/34 33/136/33 39/137/39 40/138/40 
f 35/139/35 34/140/34 40/141/40 41/142/41 
f 36/143/36 35/144/35 41/145/41 37/146/37 
f 27/147/27 26/148/26 31/149/31 37/150/37 41/151/41 40/152/40 39/153/39 38/154/38 
# num_faces: 38

